<svg width="57" height="58" viewBox="0 0 57 58" fill="none" xmlns="http://www.w3.org/2000/svg">
<path d="M51.9789 23.276C51.2399 23.1718 50.5257 23.2115 49.8561 23.3702C49.194 23.5265 48.4996 23.2983 48.0185 22.8172L45.8561 20.6548C45.3799 20.1786 45.1542 19.4892 45.3105 18.8321C45.4667 18.1699 45.5089 17.4632 45.4097 16.7316C45.0699 14.2294 43.0513 12.2133 40.5491 11.8735C39.82 11.7743 39.1133 11.8165 38.4511 11.9727C37.794 12.1289 37.1046 11.9033 36.6284 11.4271L34.5652 9.36388C34.0791 8.87782 33.8534 8.17106 34.0221 7.5015C34.1659 6.93608 34.2229 6.33843 34.1808 5.71846C33.9799 2.84428 31.5744 0.520635 28.6953 0.421439C25.4566 0.309845 22.7957 2.9038 22.7957 6.11772C22.7957 6.55418 22.8453 6.97824 22.9395 7.38742C23.0908 8.05202 22.9122 8.74639 22.4286 9.22749L20.2315 11.4247C19.7553 11.9008 19.0659 12.1265 18.4088 11.9702C17.7466 11.814 17.0399 11.7718 16.3108 11.871C13.8086 12.2108 11.79 14.2269 11.4502 16.7291C11.351 17.4607 11.3932 18.1674 11.5494 18.8296C11.7057 19.4867 11.48 20.1762 11.0038 20.6523L8.84139 22.8147C8.3603 23.2958 7.66593 23.524 7.0038 23.3677C6.33423 23.209 5.62003 23.1694 4.88103 23.2735C2.36147 23.6281 0.34781 25.6815 0.0427853 28.206C-0.403593 31.9109 2.70618 35.0207 6.41111 34.5718C8.91827 34.2693 10.9617 32.2804 11.3337 29.7832C11.4428 29.0566 11.4105 28.3548 11.2667 27.6927C11.1229 27.0355 11.351 26.351 11.8272 25.8749L14.0938 23.6083C14.5674 23.1346 15.2519 22.9511 15.909 23.0925C16.4298 23.2041 16.9754 23.2438 17.5383 23.2016C20.3059 22.9908 22.57 20.7267 22.7808 17.9591C22.8229 17.3962 22.7833 16.8481 22.6717 16.3299C22.5303 15.6727 22.7138 14.9907 23.1875 14.5146L25.4913 12.2108C25.9674 11.7346 26.6519 11.5561 27.3115 11.695C27.6934 11.7768 28.0902 11.819 28.4944 11.819C28.8689 11.819 29.2334 11.7818 29.5856 11.7123C30.2403 11.5834 30.9173 11.7594 31.3909 12.2331L33.6749 14.5171C34.1486 14.9907 34.3321 15.6752 34.1907 16.3323C34.0791 16.8531 34.0394 17.3987 34.0816 17.9616C34.2924 20.7292 36.5565 22.9933 39.3241 23.2041C39.887 23.2462 40.4326 23.2066 40.9533 23.095C41.6105 22.9536 42.2925 23.1371 42.7686 23.6108L45.0352 25.8774C45.5114 26.3535 45.742 27.038 45.5957 27.6951C45.4493 28.3548 45.4196 29.0591 45.5287 29.7857C45.9007 32.2829 47.9466 34.2718 50.4513 34.5743C54.1562 35.0232 57.266 31.9134 56.8196 28.2085C56.5146 25.684 54.4984 23.6306 51.9813 23.276H51.9789Z" fill="url(#paint0_linear_343_25)"/>
<path d="M22.5293 51.7798C22.5293 48.6328 25.0811 46.0811 28.2281 46.0811C31.375 46.0811 33.9268 48.6328 33.9268 51.7798C33.9268 54.9268 31.375 57.4786 28.2281 57.4786C25.0811 57.4786 22.5293 54.9268 22.5293 51.7798Z" fill="url(#paint1_linear_343_25)"/>
<path d="M40.3186 34.7408C39.5796 34.6366 38.8654 34.6763 38.1958 34.835C37.5337 34.9913 36.8393 34.7631 36.3582 34.282L34.3024 32.2262C33.8164 31.7401 33.5907 31.0334 33.7593 30.3638C33.9032 29.7984 33.9602 29.2007 33.918 28.5808C33.7172 25.7066 31.3117 23.3829 28.4325 23.2837C25.1938 23.1721 22.5329 25.7661 22.5329 28.98C22.5329 29.4165 22.5825 29.8405 22.6767 30.2497C22.828 30.9143 22.6495 31.6087 22.1659 32.0898L19.9762 34.2795C19.4951 34.7606 18.8007 34.9888 18.1386 34.8325C17.469 34.6738 16.7548 34.6341 16.0158 34.7383C13.4962 35.0929 11.4826 37.1463 11.1776 39.6708C10.7312 43.3757 13.8409 46.4855 17.5459 46.0366C20.053 45.7341 22.0965 43.7427 22.4684 41.248C22.5776 40.5214 22.5453 39.8196 22.4015 39.1574C22.2576 38.5003 22.4858 37.8158 22.9619 37.3397L25.2285 35.0731C25.7047 34.5969 26.3891 34.4184 27.0488 34.5573C27.4307 34.6391 27.8274 34.6813 28.2317 34.6813C28.6061 34.6813 28.9707 34.6441 29.3228 34.5746C29.9775 34.4457 30.6545 34.6217 31.1282 35.0954L33.3725 37.3397C33.8486 37.8158 34.0792 38.5003 33.9329 39.1574C33.7866 39.8171 33.7568 40.5214 33.866 41.248C34.2379 43.7452 36.2838 45.7341 38.7885 46.0366C42.4935 46.4855 45.6032 43.3757 45.1568 39.6708C44.8518 37.1463 42.8357 35.0929 40.3186 34.7383V34.7408Z" fill="url(#paint2_linear_343_25)"/>
<defs>
<linearGradient id="paint0_linear_343_25" x1="28.425" y1="-1.68646" x2="28.425" y2="51.4797" gradientUnits="userSpaceOnUse">
<stop stop-color="#DE78FF"/>
<stop offset="0.44" stop-color="#DE78FF"/>
<stop offset="0.51" stop-color="#C976FE"/>
<stop offset="0.66" stop-color="#9573FC"/>
<stop offset="0.87" stop-color="#416DF9"/>
<stop offset="1" stop-color="#0A6AF7"/>
</linearGradient>
<linearGradient id="paint1_linear_343_25" x1="28.2305" y1="-1.68638" x2="28.2305" y2="51.4798" gradientUnits="userSpaceOnUse">
<stop stop-color="#DE78FF"/>
<stop offset="0.44" stop-color="#DE78FF"/>
<stop offset="0.51" stop-color="#C976FE"/>
<stop offset="0.66" stop-color="#9573FC"/>
<stop offset="0.87" stop-color="#416DF9"/>
<stop offset="1" stop-color="#0A6AF7"/>
</linearGradient>
<linearGradient id="paint2_linear_343_25" x1="28.1672" y1="-1.68615" x2="28.1672" y2="51.48" gradientUnits="userSpaceOnUse">
<stop stop-color="#DE78FF"/>
<stop offset="0.44" stop-color="#DE78FF"/>
<stop offset="0.51" stop-color="#C976FE"/>
<stop offset="0.66" stop-color="#9573FC"/>
<stop offset="0.87" stop-color="#416DF9"/>
<stop offset="1" stop-color="#0A6AF7"/>
</linearGradient>
</defs>
</svg>
